<?xml version="1.0" encoding="UTF-8"?>
<svg width="16px" height="16px" viewBox="0 0 24 24" version="1.1" xmlns="http://www.w3.org/2000/svg" xmlns:xlink="http://www.w3.org/1999/xlink">
    <!-- Generator: Sketch 51.1 (57501) - http://www.bohemiancoding.com/sketch -->
    <title>ic_delete</title>
    <desc>Created with Sketch.</desc>
    <defs></defs>
    <g id="System-icons" stroke="none" stroke-width="1" fill="none" fill-rule="evenodd">
        <g id="system-icon/delete" fill="#0081cb">
            <g id="Group">
                <path d="M17.1875,19.1578438 C17.1875,19.6975308 16.7675,20.1355377 16.25,20.1355377 C15.7325,20.1355377 15.3125,19.6975308 15.3125,19.1578438 L15.3125,10.3585986 C15.3125,9.81891153 15.7325,9.38090466 16.25,9.38090466 C16.7675,9.38090466 17.1875,9.81891153 17.1875,10.3585986 L17.1875,19.1578438 Z M13.4375,19.1578438 C13.4375,19.6975308 13.0175,20.1355377 12.5,20.1355377 C11.9825,20.1355377 11.5625,19.6975308 11.5625,19.1578438 L11.5625,10.3585986 C11.5625,9.81891153 11.9825,9.38090466 12.5,9.38090466 C13.0175,9.38090466 13.4375,9.81891153 13.4375,10.3585986 L13.4375,19.1578438 Z M9.6875,19.1578438 C9.6875,19.6975308 9.2675,20.1355377 8.75,20.1355377 C8.2325,20.1355377 7.8125,19.6975308 7.8125,19.1578438 L7.8125,10.3585986 C7.8125,9.81891153 8.2325,9.38090466 8.75,9.38090466 C9.2675,9.38090466 9.6875,9.81891153 9.6875,10.3585986 L9.6875,19.1578438 Z M5.9375,7.3345913 L5.9375,20.0778538 C5.9375,21.1582055 6.7765625,22 7.8125,22 L17.1875,22 C18.2234375,22 19.0625,21.1582055 19.0625,20.0778538 L19.0625,7.3345913 L5.9375,7.3345913 Z M16.25,3.95538783 L8.75,3.95538783 L8.75,3.95538783 C8.75,2.87503605 9.5890625,2 10.625,2 L14.375,2 C15.4109375,2 16.25,2.87503605 16.25,3.95538783 Z M19.0625,5.91077565 L5.9375,5.91077565 C5.42,5.91077565 5,5.47276878 5,4.93308174 L5,4.93308174 C5,4.3933947 5.42,3.95538783 5.9375,3.95538783 L19.0625,3.95538783 C19.58,3.95538783 20,4.3933947 20,4.93308174 L20,4.93308174 C20,5.47276878 19.58,5.91077565 19.0625,5.91077565" id="icon/delete"></path>
            </g>
        </g>
    </g>
</svg>
