<svg xmlns="http://www.w3.org/2000/svg" xmlns:xlink="http://www.w3.org/1999/xlink" viewBox="0 0 15.02 16.5"><defs><style>.cls-1{fill:none;}.cls-2{clip-path:url(#clip-path);}.cls-3{fill:#fff;}.cls-4{fill:#FFFFFF;}.cls-5{fill:#FFFFFF;}.cls-6{fill:#FFFFFF;}.cls-7{fill:#FFFFFF;}.cls-8{fill:#FFFFFF;}.cls-9{fill:#FFFFFF;}.cls-10{fill:#FFFFFF;}.cls-11{fill:#FFFFFF;}.cls-12{fill:#FFFFFF;}.cls-13{fill:#FFFFFF;}.cls-14{fill:#FFFFFF;}.cls-15{fill:#FFFFFF;}.cls-16{fill:#FFFFFF;}.cls-17{fill:#FFFFFF;}.cls-18{fill:#FFFFFF;}.cls-19{fill:#FFFFFF;}.cls-20{fill:#FFFFFF;}.cls-21{fill:#FFFFFF;}.cls-22{fill:#FFFFFF;}.cls-23{fill:#FFFFFF;}.cls-24{fill:#FFFFFF;}.cls-25{fill:#FFFFFF;}.cls-26{fill:#FFFFFF;}.cls-27{fill:#FFFFFF;}.cls-28{fill:#FFFFFF;}.cls-29{fill:#FFFFFF;}.cls-30{fill:#FFFFFF;}.cls-31{fill:#FFFFFF;}.cls-32{fill:#FFFFFF;}.cls-33{fill:#FFFFFF;}.cls-34{fill:#FFFFFF;}.cls-35{fill:#FFFFFF;}.cls-36{fill:#FFFFFF;}.cls-37{fill:#FFFFFF;}.cls-38{fill:#FFFFFF;}.cls-39{fill:#FFFFFF;}.cls-40{fill:#FFFFFF;}.cls-41{fill:#FFFFFF;}.cls-42{fill:#FFFFFF;}.cls-43{fill:#FFFFFF;}.cls-44{fill:#FFFFFF;}.cls-45{fill:#FFFFFF;}.cls-46{fill:#FFFFFF;}.cls-47{fill:#FFFFFF;}.cls-48{fill:#FFFFFF;}.cls-49{fill:#FFFFFF;}.cls-50{fill:#FFFFFF;}.cls-51{fill:#FFFFFF;}.cls-52{fill:#0081cb;}.cls-53{fill:#0081cb;}.cls-54{clip-path:url(#clip-path-2);}.cls-55{fill:#FFFFFF;}.cls-56{fill:#FFFFFF;}.cls-57{fill:#FFFFFF;}.cls-58{fill:#FFFFFF;}.cls-59{fill:#FFFFFF;}.cls-60{fill:#FFFFFF;}.cls-61{fill:#FFFFFF;}.cls-62{fill:#FFFFFF;}.cls-63{fill:#FFFFFF;}.cls-64{fill:#FFFFFF;}.cls-65{fill:#FFFFFF;}.cls-66{fill:#FFFFFF;}.cls-67{fill:#FFFFFF;}.cls-68{fill:#FFFFFF;}.cls-69{fill:#FFFFFF;}.cls-70{fill:#FFFFFF;}.cls-71{fill:#FFFFFF;}.cls-72{fill:#FFFFFF;}.cls-73{fill:#FFFFFF;}.cls-74{fill:#FFFFFF;}.cls-75{fill:#FFFFFF;}.cls-76{fill:#FFFFFF;}.cls-77{fill:#FFFFFF;}.cls-78{fill:#FFFFFF;}.cls-79{fill:#FFFFFF;}.cls-80{fill:#FFFFFF;}.cls-81{fill:#FFFFFF;}.cls-82{fill:#FFFFFF;}.cls-83{fill:#FFFFFF;}.cls-84{fill:#FFFFFF;}.cls-85{fill:#FFFFFF;}.cls-86{fill:#FFFFFF;}.cls-87{fill:#FFFFFF;}.cls-88{fill:#FFFFFF;}.cls-89{fill:#FFFFFF;}.cls-90{fill:#FFFFFF;}.cls-91{fill:#FFFFFF;}.cls-92{fill:#FFFFFF;}.cls-93{fill:#FFFFFF;}.cls-94{fill:#FFFFFF;}.cls-95{fill:#FFFFFF;}.cls-96{fill:#FFFFFF;}.cls-97{fill:#FFFFFF;}.cls-98{fill:#FFFFFF;}.cls-99{fill:#FFFFFF;}.cls-100{fill:#FFFFFF;}.cls-101{fill:#FFFFFF;}.cls-102{fill:#FFFFFF;}.cls-103{fill:#FFFFFF;}.cls-104{fill:#FFFFFF;}.cls-105{fill:#FFFFFF;}.cls-106{fill:#FFFFFF;}.cls-107{fill:#FFFFFF;}.cls-108{fill:#FFFFFF;}.cls-109{fill:#FFFFFF;}.cls-110{fill:#FFFFFF;}.cls-111{fill:#FFFFFF;}.cls-112{fill:#FFFFFF;}.cls-113{fill:#FFFFFF;}.cls-114{fill:#FFFFFF;}.cls-115{fill:#FFFFFF;}.cls-116{fill:#FFFFFF;}.cls-117{fill:#FFFFFF;}.cls-118{fill:#FFFFFF;}.cls-119{fill:#FFFFFF;}.cls-120{fill:#FFFFFF;}.cls-121{fill:#FFFFFF;}.cls-122{fill:#FFFFFF;}.cls-123{fill:#FFFFFF;}.cls-124{fill:#FFFFFF;}.cls-125{fill:#FFFFFF;}.cls-126{fill:#FFFFFF;}.cls-127{fill:#FFFFFF;}.cls-128{fill:#FFFFFF;}.cls-129{fill:#FFFFFF;}.cls-130{fill:#FFFFFF;}.cls-131{fill:#FFFFFF;}.cls-132{fill:#FFFFFF;}.cls-133{fill:#FFFFFF;}.cls-134{fill:#FFFFFF;}.cls-135{fill:#FFFFFF;}.cls-136{fill:#FFFFFF;}.cls-137{fill:#FFFFFF;}.cls-138{fill:#FFFFFF;}.cls-139{fill:#FFFFFF;}.cls-140{fill:#FFFFFF;}.cls-141{fill:#FFFFFF;}.cls-142{fill:#FFFFFF;}.cls-143{fill:#FFFFFF;}.cls-144{fill:#FFFFFF;}.cls-145{fill:url(#linear-gradient);}</style><clipPath id="clip-path"><polygon class="cls-1" points="0.5 2.06 7.92 2.06 11.51 5.86 11.51 16 0.5 16 0.5 2.06"/></clipPath><clipPath id="clip-path-2"><polygon class="cls-1" points="7.41 5.39 7.41 9.03 11.38 9.03 11.38 5.39 13.88 5.39 9.57 0.72 4.91 5.39 7.41 5.39"/></clipPath><linearGradient id="linear-gradient" x1="1192.72" y1="-510.72" x2="1192.81" y2="-501.17" gradientTransform="translate(1202.11 -501.16) rotate(180)" gradientUnits="userSpaceOnUse"><stop offset="0" stop-color="#0081cb"/><stop offset="1" stop-color="#0081cb"/></linearGradient></defs><g id="Layer_2" data-name="Layer 2"><g id="Layer_1-2" data-name="Layer 1"><g class="cls-2"><polygon class="cls-3" points="5.93 2.06 0.5 6.55 0.5 2.06 5.93 2.06"/><polygon class="cls-3" points="6.28 2.06 0.5 6.84 0.5 6.55 5.93 2.06 6.28 2.06"/><polygon class="cls-4" points="6.63 2.06 0.5 7.13 0.5 6.84 6.28 2.06 6.63 2.06"/><polygon class="cls-5" points="6.99 2.06 0.5 7.42 0.5 7.13 6.63 2.06 6.99 2.06"/><polygon class="cls-6" points="7.34 2.06 0.5 7.71 0.5 7.42 6.99 2.06 7.34 2.06"/><polygon class="cls-7" points="7.69 2.06 0.5 8 0.5 7.71 7.34 2.06 7.69 2.06"/><polygon class="cls-8" points="8.05 2.06 0.5 8.29 0.5 8 7.69 2.06 8.05 2.06"/><polygon class="cls-9" points="8.4 2.06 0.5 8.59 0.5 8.29 8.05 2.06 8.4 2.06"/><polygon class="cls-10" points="8.75 2.06 0.5 8.88 0.5 8.59 8.4 2.06 8.75 2.06"/><polygon class="cls-11" points="9.11 2.06 0.5 9.17 0.5 8.88 8.75 2.06 9.11 2.06"/><polygon class="cls-12" points="9.46 2.06 0.5 9.46 0.5 9.17 9.11 2.06 9.46 2.06"/><polygon class="cls-13" points="9.81 2.06 0.5 9.75 0.5 9.46 9.46 2.06 9.81 2.06"/><polygon class="cls-14" points="10.16 2.06 0.5 10.04 0.5 9.75 9.81 2.06 10.16 2.06"/><polygon class="cls-15" points="10.52 2.06 0.5 10.33 0.5 10.04 10.16 2.06 10.52 2.06"/><polygon class="cls-16" points="10.87 2.06 0.5 10.63 0.5 10.33 10.52 2.06 10.87 2.06"/><polygon class="cls-17" points="10.97 2.06 11.07 2.19 0.5 10.92 0.5 10.63 10.87 2.06 10.97 2.06"/><polygon class="cls-18" points="11.07 2.19 11.21 2.36 0.5 11.21 0.5 10.92 11.07 2.19"/><polygon class="cls-19" points="11.21 2.36 11.36 2.54 0.5 11.5 0.5 11.21 11.21 2.36"/><polygon class="cls-20" points="11.36 2.54 11.5 2.71 0.5 11.79 0.5 11.5 11.36 2.54"/><polygon class="cls-21" points="11.5 2.71 11.51 2.72 11.51 2.99 0.5 12.08 0.5 11.79 11.5 2.71"/><polygon class="cls-22" points="11.51 3.28 0.5 12.37 0.5 12.08 11.51 2.99 11.51 3.28"/><polygon class="cls-23" points="11.51 3.58 0.5 12.66 0.5 12.37 11.51 3.28 11.51 3.58"/><polygon class="cls-24" points="11.51 3.87 0.5 12.96 0.5 12.66 11.51 3.58 11.51 3.87"/><polygon class="cls-25" points="11.51 4.16 0.5 13.25 0.5 12.96 11.51 3.87 11.51 4.16"/><polygon class="cls-26" points="11.51 4.45 0.5 13.54 0.5 13.25 11.51 4.16 11.51 4.45"/><polygon class="cls-27" points="11.51 4.74 0.5 13.83 0.5 13.54 11.51 4.45 11.51 4.74"/><polygon class="cls-28" points="11.51 5.03 0.5 14.12 0.5 13.83 11.51 4.74 11.51 5.03"/><polygon class="cls-29" points="11.51 5.32 0.5 14.41 0.5 14.12 11.51 5.03 11.51 5.32"/><polygon class="cls-30" points="11.51 5.62 0.5 14.7 0.5 14.41 11.51 5.32 11.51 5.62"/><polygon class="cls-31" points="11.51 5.91 0.5 14.99 0.5 14.7 11.51 5.62 11.51 5.91"/><polygon class="cls-32" points="11.51 6.2 0.5 15.29 0.5 14.99 11.51 5.91 11.51 6.2"/><polygon class="cls-33" points="11.51 6.49 0.5 15.58 0.5 15.29 11.51 6.2 11.51 6.49"/><polygon class="cls-34" points="11.51 6.78 0.5 15.87 0.5 15.58 11.51 6.49 11.51 6.78"/><polygon class="cls-35" points="11.51 7.07 0.69 16 0.5 16 0.5 15.87 11.51 6.78 11.51 7.07"/><polygon class="cls-36" points="11.51 7.36 1.05 16 0.69 16 11.51 7.07 11.51 7.36"/><polygon class="cls-37" points="11.51 7.66 1.4 16 1.05 16 11.51 7.36 11.51 7.66"/><polygon class="cls-38" points="11.51 7.95 1.75 16 1.4 16 11.51 7.66 11.51 7.95"/><polygon class="cls-39" points="11.51 8.24 2.11 16 1.75 16 11.51 7.95 11.51 8.24"/><polygon class="cls-40" points="11.51 8.53 2.46 16 2.11 16 11.51 8.24 11.51 8.53"/><polygon class="cls-41" points="11.51 8.82 2.81 16 2.46 16 11.51 8.53 11.51 8.82"/><polygon class="cls-42" points="11.51 9.11 3.17 16 2.81 16 11.51 8.82 11.51 9.11"/><polygon class="cls-43" points="11.51 9.4 3.52 16 3.17 16 11.51 9.11 11.51 9.4"/><polygon class="cls-44" points="11.51 9.69 3.87 16 3.52 16 11.51 9.4 11.51 9.69"/><polygon class="cls-45" points="11.51 9.99 4.22 16 3.87 16 11.51 9.69 11.51 9.99"/><polygon class="cls-46" points="11.51 10.28 4.58 16 4.22 16 11.51 9.99 11.51 10.28"/><polygon class="cls-47" points="11.51 10.57 4.93 16 4.58 16 11.51 10.28 11.51 10.57"/><polygon class="cls-48" points="11.51 10.86 5.28 16 4.93 16 11.51 10.57 11.51 10.86"/><polygon class="cls-49" points="11.51 11.15 5.64 16 5.28 16 11.51 10.86 11.51 11.15"/><polygon class="cls-50" points="11.51 11.44 5.99 16 5.64 16 11.51 11.15 11.51 11.44"/><polygon class="cls-51" points="11.51 11.73 6.34 16 5.99 16 11.51 11.44 11.51 11.73"/><polygon class="cls-51" points="6.34 16 11.51 11.73 11.51 16 6.34 16"/></g><path class="cls-52" d="M12,16.5H0V1.56H8.13L12,5.66Zm-11-1H11V6.06L7.7,2.56H1Z"/><rect class="cls-53" x="2.01" y="7" width="8.15" height="0.99"/><rect class="cls-53" x="2.01" y="9.03" width="8.15" height="0.99"/><rect class="cls-53" x="2.01" y="11.06" width="8.15" height="0.99"/><rect class="cls-53" x="2.01" y="13.09" width="8.15" height="0.99"/><g class="cls-54"><polygon class="cls-55" points="4.91 7.81 13.88 7.72 13.88 9.03 4.91 9.03 4.91 7.81"/><polygon class="cls-55" points="4.91 7.77 13.88 7.68 13.88 7.72 4.91 7.81 4.91 7.77"/><polygon class="cls-56" points="4.91 7.73 13.88 7.64 13.88 7.68 4.91 7.77 4.91 7.73"/><polygon class="cls-57" points="4.91 7.69 13.88 7.6 13.88 7.64 4.91 7.73 4.91 7.69"/><polygon class="cls-58" points="4.91 7.64 13.88 7.56 13.88 7.6 4.91 7.69 4.91 7.64"/><polygon class="cls-59" points="4.91 7.6 13.88 7.51 13.88 7.56 4.91 7.64 4.91 7.6"/><polygon class="cls-60" points="4.91 7.56 13.88 7.47 13.88 7.51 4.91 7.6 4.91 7.56"/><polygon class="cls-61" points="4.91 7.52 13.88 7.43 13.88 7.47 4.91 7.56 4.91 7.52"/><polygon class="cls-62" points="4.91 7.48 13.88 7.39 13.88 7.43 4.91 7.52 4.91 7.48"/><polygon class="cls-63" points="4.91 7.44 13.88 7.35 13.88 7.39 4.91 7.48 4.91 7.44"/><polygon class="cls-64" points="4.91 7.4 13.88 7.31 13.88 7.35 4.91 7.44 4.91 7.4"/><polygon class="cls-65" points="4.91 7.35 13.88 7.26 13.88 7.31 4.91 7.4 4.91 7.35"/><polygon class="cls-66" points="4.91 7.31 13.88 7.22 13.88 7.26 4.91 7.35 4.91 7.31"/><polygon class="cls-67" points="4.91 7.27 13.88 7.18 13.88 7.22 4.91 7.31 4.91 7.27"/><polygon class="cls-68" points="4.91 7.23 13.88 7.14 13.88 7.18 4.91 7.27 4.91 7.23"/><polygon class="cls-69" points="4.91 7.19 13.88 7.1 13.88 7.14 4.91 7.23 4.91 7.19"/><polygon class="cls-70" points="4.91 7.15 13.88 7.06 13.88 7.1 4.91 7.19 4.91 7.15"/><polygon class="cls-71" points="4.91 7.11 13.88 7.02 13.88 7.06 4.91 7.15 4.91 7.11"/><polygon class="cls-72" points="4.91 7.06 13.88 6.97 13.88 7.02 4.91 7.11 4.91 7.06"/><polygon class="cls-73" points="4.91 7.02 13.88 6.93 13.88 6.97 4.91 7.06 4.91 7.02"/><polygon class="cls-74" points="4.91 6.98 13.88 6.89 13.88 6.93 4.91 7.02 4.91 6.98"/><polygon class="cls-75" points="4.91 6.94 13.88 6.85 13.88 6.89 4.91 6.98 4.91 6.94"/><polygon class="cls-76" points="4.91 6.9 13.88 6.81 13.88 6.85 4.91 6.94 4.91 6.9"/><polygon class="cls-77" points="4.91 6.86 13.88 6.77 13.88 6.81 4.91 6.9 4.91 6.86"/><polygon class="cls-78" points="4.91 6.82 13.88 6.73 13.88 6.77 4.91 6.86 4.91 6.82"/><polygon class="cls-79" points="4.91 6.77 13.88 6.68 13.88 6.73 4.91 6.82 4.91 6.77"/><polygon class="cls-80" points="4.91 6.73 13.88 6.64 13.88 6.68 4.91 6.77 4.91 6.73"/><polygon class="cls-81" points="4.91 6.69 13.88 6.6 13.88 6.64 4.91 6.73 4.91 6.69"/><polygon class="cls-82" points="4.91 6.65 13.88 6.56 13.88 6.6 4.91 6.69 4.91 6.65"/><polygon class="cls-83" points="4.91 6.61 13.88 6.52 13.88 6.56 4.91 6.65 4.91 6.61"/><polygon class="cls-84" points="4.91 6.57 13.88 6.48 13.88 6.52 4.91 6.61 4.91 6.57"/><polygon class="cls-85" points="4.91 6.53 13.88 6.44 13.88 6.48 4.91 6.57 4.91 6.53"/><polygon class="cls-86" points="4.91 6.48 13.88 6.39 13.88 6.44 4.91 6.53 4.91 6.48"/><polygon class="cls-87" points="4.91 6.44 13.88 6.35 13.88 6.39 4.91 6.48 4.91 6.44"/><polygon class="cls-88" points="4.91 6.4 13.88 6.31 13.88 6.35 4.91 6.44 4.91 6.4"/><polygon class="cls-89" points="4.91 6.36 13.88 6.27 13.88 6.31 4.91 6.4 4.91 6.36"/><polygon class="cls-90" points="4.91 6.32 13.88 6.23 13.88 6.27 4.91 6.36 4.91 6.32"/><polygon class="cls-91" points="4.91 6.28 13.88 6.19 13.88 6.23 4.91 6.32 4.91 6.28"/><polygon class="cls-92" points="4.91 6.23 13.88 6.14 13.88 6.19 4.91 6.28 4.91 6.23"/><polygon class="cls-93" points="4.91 6.19 13.88 6.1 13.88 6.14 4.91 6.23 4.91 6.19"/><polygon class="cls-94" points="4.91 6.15 13.88 6.06 13.88 6.1 4.91 6.19 4.91 6.15"/><polygon class="cls-95" points="4.91 6.11 13.88 6.02 13.88 6.06 4.91 6.15 4.91 6.11"/><polygon class="cls-96" points="4.91 6.07 13.88 5.98 13.88 6.02 4.91 6.11 4.91 6.07"/><polygon class="cls-97" points="4.91 6.03 13.88 5.94 13.88 5.98 4.91 6.07 4.91 6.03"/><polygon class="cls-98" points="4.91 5.99 13.88 5.9 13.88 5.94 4.91 6.03 4.91 5.99"/><polygon class="cls-99" points="4.91 5.94 13.88 5.86 13.88 5.9 4.91 5.99 4.91 5.94"/><polygon class="cls-100" points="4.91 5.9 13.88 5.81 13.88 5.86 4.91 5.94 4.91 5.9"/><polygon class="cls-101" points="4.91 5.86 13.88 5.77 13.88 5.81 4.91 5.9 4.91 5.86"/><polygon class="cls-102" points="4.91 5.82 13.88 5.73 13.88 5.77 4.91 5.86 4.91 5.82"/><polygon class="cls-103" points="4.91 5.78 13.88 5.69 13.88 5.73 4.91 5.82 4.91 5.78"/><polygon class="cls-104" points="4.91 5.74 13.88 5.65 13.88 5.69 4.91 5.78 4.91 5.74"/><polygon class="cls-105" points="4.91 5.7 13.88 5.61 13.88 5.65 4.91 5.74 4.91 5.7"/><polygon class="cls-106" points="4.91 5.65 13.88 5.56 13.88 5.61 4.91 5.7 4.91 5.65"/><polygon class="cls-107" points="4.91 5.61 13.88 5.52 13.88 5.56 4.91 5.65 4.91 5.61"/><polygon class="cls-108" points="4.91 5.57 13.88 5.48 13.88 5.52 4.91 5.61 4.91 5.57"/><polygon class="cls-109" points="4.91 5.53 13.88 5.44 13.88 5.48 4.91 5.57 4.91 5.53"/><polygon class="cls-110" points="4.91 5.49 13.88 5.4 13.88 5.44 4.91 5.53 4.91 5.49"/><polygon class="cls-111" points="4.91 5.45 13.88 5.36 13.88 5.4 4.91 5.49 4.91 5.45"/><polygon class="cls-112" points="4.91 5.41 13.88 5.32 13.88 5.36 4.91 5.45 4.91 5.41"/><polygon class="cls-113" points="4.91 5.36 13.88 5.27 13.88 5.32 4.91 5.41 4.91 5.36"/><polygon class="cls-114" points="4.91 5.32 13.88 5.23 13.88 5.27 4.91 5.36 4.91 5.32"/><polygon class="cls-115" points="4.91 5.28 13.88 5.19 13.88 5.23 4.91 5.32 4.91 5.28"/><polygon class="cls-116" points="4.91 5.24 13.88 5.15 13.88 5.19 4.91 5.28 4.91 5.24"/><polygon class="cls-117" points="4.91 5.2 13.88 5.11 13.88 5.15 4.91 5.24 4.91 5.2"/><polygon class="cls-118" points="4.91 5.16 13.88 5.07 13.88 5.11 4.91 5.2 4.91 5.16"/><polygon class="cls-119" points="4.91 5.11 13.88 5.03 13.88 5.07 4.91 5.16 4.91 5.11"/><polygon class="cls-120" points="4.91 5.07 13.88 4.98 13.88 5.03 4.91 5.11 4.91 5.07"/><polygon class="cls-121" points="4.91 5.03 13.88 4.94 13.88 4.98 4.91 5.07 4.91 5.03"/><polygon class="cls-122" points="4.91 4.99 13.88 4.9 13.88 4.94 4.91 5.03 4.91 4.99"/><polygon class="cls-123" points="4.91 4.95 13.88 4.86 13.88 4.9 4.91 4.99 4.91 4.95"/><polygon class="cls-124" points="4.91 4.91 13.88 4.82 13.88 4.86 4.91 4.95 4.91 4.91"/><polygon class="cls-125" points="4.91 4.87 13.88 4.78 13.88 4.82 4.91 4.91 4.91 4.87"/><polygon class="cls-126" points="4.91 4.82 13.88 4.74 13.88 4.78 4.91 4.87 4.91 4.82"/><polygon class="cls-127" points="4.91 4.78 13.88 4.69 13.88 4.74 4.91 4.82 4.91 4.78"/><polygon class="cls-128" points="4.91 4.74 13.88 4.65 13.88 4.69 4.91 4.78 4.91 4.74"/><polygon class="cls-129" points="4.91 4.7 13.88 4.61 13.88 4.65 4.91 4.74 4.91 4.7"/><polygon class="cls-130" points="4.91 4.66 13.88 4.57 13.88 4.61 4.91 4.7 4.91 4.66"/><polygon class="cls-131" points="4.91 4.62 13.88 4.53 13.88 4.57 4.91 4.66 4.91 4.62"/><polygon class="cls-132" points="4.91 4.58 13.88 4.49 13.88 4.53 4.91 4.62 4.91 4.58"/><polygon class="cls-133" points="4.91 4.53 13.88 4.45 13.88 4.49 4.91 4.58 4.91 4.53"/><polygon class="cls-134" points="4.91 4.49 13.88 4.4 13.88 4.45 4.91 4.53 4.91 4.49"/><polygon class="cls-135" points="4.91 4.45 13.88 4.36 13.88 4.4 4.91 4.49 4.91 4.45"/><polygon class="cls-136" points="4.91 4.41 13.88 4.32 13.88 4.36 4.91 4.45 4.91 4.41"/><polygon class="cls-137" points="4.91 4.37 13.88 4.28 13.88 4.32 4.91 4.41 4.91 4.37"/><polygon class="cls-138" points="4.91 4.33 13.88 4.24 13.88 4.28 4.91 4.37 4.91 4.33"/><polygon class="cls-139" points="4.91 4.29 13.88 4.2 13.88 4.24 4.91 4.33 4.91 4.29"/><polygon class="cls-140" points="4.91 4.24 13.88 4.15 13.88 4.2 4.91 4.29 4.91 4.24"/><polygon class="cls-141" points="4.91 4.2 13.88 4.11 13.88 4.15 4.91 4.24 4.91 4.2"/><polygon class="cls-142" points="4.91 4.16 13.88 4.07 13.88 4.11 4.91 4.2 4.91 4.16"/><polygon class="cls-143" points="4.91 4.12 13.88 4.03 13.88 4.07 4.91 4.16 4.91 4.12"/><polygon class="cls-144" points="4.91 4.08 13.88 3.99 13.88 4.03 4.91 4.12 4.91 4.08"/><polygon class="cls-144" points="13.88 3.99 4.91 4.08 4.91 0.72 13.88 0.72 13.88 3.99"/></g><path class="cls-145" d="M11.88,9.53h-5V5.89H3.7L9.59,0,15,5.89H11.88Zm-4-1h3V4.89h1.85L9.56,1.44,6.12,4.89H7.91Z"/></g></g></svg>