<?xml version="1.0" encoding="UTF-8"?>
<svg width="24px" height="24px" viewBox="0 0 24 24" version="1.1" xmlns="http://www.w3.org/2000/svg" xmlns:xlink="http://www.w3.org/1999/xlink">
    <!-- Generator: Sketch 55.2 (78181) - https://sketchapp.com -->
    <title>icon/Show Usage/show-usage-default</title>
    <desc>Created with Sketch.</desc>
    <defs>
        <linearGradient x1="50%" y1="100%" x2="50%" y2="0%" id="linearGradient-1">
            <stop stop-color="#0081cb" offset="0%"></stop>
            <stop stop-color="#0081cb" offset="63%"></stop>
            <stop stop-color="#0081cb" offset="100%"></stop>
        </linearGradient>
        <linearGradient x1="50%" y1="100%" x2="50%" y2="0%" id="linearGradient-2">
            <stop stop-color="#0081cb" offset="0%"></stop>
            <stop stop-color="#0081cb" offset="100%"></stop>
        </linearGradient>
        <linearGradient x1="-462.5%" y1="100%" x2="-437.5%" y2="0%" id="linearGradient-3">
            <stop stop-color="#0081cb" offset="0%"></stop>
            <stop stop-color="#0081cb" offset="100%"></stop>
        </linearGradient>
        <linearGradient x1="-117.346939%" y1="100%" x2="-109.183673%" y2="0%" id="linearGradient-4">
            <stop stop-color="#0081cb" offset="0%"></stop>
            <stop stop-color="#0081cb" offset="100%"></stop>
        </linearGradient>
    </defs>
    <g id="Symbols" stroke="none" stroke-width="1" fill="none" fill-rule="evenodd">
        <g id="icon/Show-Usage/show-usage-default" fill-rule="nonzero">
            <g id="show-usage.v02" transform="translate(1.000000, 1.000000)">
                <polygon id="Path" fill="#0081cb" points="8.44 11 19 11 19 10 8.57 10 19.29 2.41 18.71 1.59 6.71 10.09 7 10.5 6.69 10.89 18.69 20.39 19.31 19.61"></polygon>
                <g id="Group" transform="translate(0.000000, 2.000000)">
                    <rect id="Rectangle" fill="url(#linearGradient-1)" x="0.5" y="0.5" width="7" height="17"></rect>
                    <path d="M7,1 L7,17 L1,17 L1,1 L7,1 L7,1 Z M8,0 L0,0 L0,18 L8,18 L8,0 Z" id="Shape" fill="#0081cb"></path>
                </g>
                <g id="Group" transform="translate(17.000000, 17.000000)">
                    <rect id="Rectangle" fill="url(#linearGradient-2)" x="0.5" y="0.5" width="4" height="4"></rect>
                    <path d="M4,1 L4,4 L1,4 L1,1 L4,1 L4,1 Z M5,0 L0,0 L0,5 L5,5 L5,0 Z" id="Shape" fill="#0081cb"></path>
                </g>
                <g id="Group" transform="translate(17.000000, 0.000000)">
                    <rect id="Rectangle" fill="url(#linearGradient-3)" x="0.5" y="0.5" width="4" height="4"></rect>
                    <path d="M4,1 L4,4 L1,4 L1,1 L4,1 L4,1 Z M5,0 L0,0 L0,5 L5,5 L5,0 Z" id="Shape" fill="#0081cb"></path>
                </g>
                <g id="Group" transform="translate(17.000000, 7.000000)">
                    <rect id="Rectangle" fill="url(#linearGradient-4)" x="0.5" y="0.5" width="4" height="7"></rect>
                    <path d="M4,1 L4,7 L1,7 L1,1 L4,1 L4,1 Z M5,0 L0,0 L0,8 L5,8 L5,0 Z" id="Shape" fill="#0081cb"></path>
                </g>
            </g>
        </g>
    </g>
</svg>