<?xml version="1.0" encoding="utf-8"?><svg xmlns="http://www.w3.org/2000/svg" width="24" height="24" fill="#0081cb" viewBox="0 0 24 24"><path fill-rule="evenodd" d="M15.749 6.086c.691 0 1.251.598 1.251 1.335v13.332c0 .737-.56 1.333-1.251 1.333h-12.5C2.56 22.086 2 21.49 2 20.753V7.421c0-.737.559-1.335 1.25-1.335h12.499zM4 20.086h11v-12H4v12zm16.75-18c.69 0 1.25.597 1.25 1.334v13.332c0 .737-.56 1.334-1.25 1.334h-1.976v-1.974h1.374V4.06H8.85v1.007H7V3.42c0-.737.56-1.334 1.251-1.334h12.5-.001z"/></svg>