<svg xmlns="http://www.w3.org/2000/svg" xmlns:xlink="http://www.w3.org/1999/xlink" viewBox="0 0 14.06 14.99"><defs><style>.cls-1{fill:none;}.cls-2{clip-path:url(#clip-path);}.cls-3{fill:#0081cb;}.cls-4{fill:#0081cb;}.cls-5{fill:#0081cb;}.cls-6{fill:#0081cb;}.cls-7{fill:#0081cb;}.cls-8{fill:#0081cb;}.cls-9{fill:#0081cb;}.cls-10{fill:#0081cb;}.cls-11{fill:#0081cb;}.cls-12{fill:#0081cb;}.cls-13{fill:#0081cb;}.cls-14{fill:#0081cb;}.cls-15{fill:#0081cb;}.cls-16{fill:#0081cb;}.cls-17{fill:#0081cb;}.cls-18{fill:#0081cb;}.cls-19{fill:#0081cb;}.cls-20{fill:#0081cb;}.cls-21{fill:#0081cb;}.cls-22{fill:#0081cb;}.cls-23{fill:#0081cb;}.cls-24{fill:#0081cb;}.cls-25{fill:#0081cb;}.cls-26{fill:#0081cb;}.cls-27{fill:#0081cb;}.cls-28{fill:#0081cb;}.cls-29{fill:#0081cb;}.cls-30{fill:#0081cb;}.cls-31{fill:#0081cb;}.cls-32{fill:#0081cb;}.cls-33{fill:#0081cb;}.cls-34{fill:#0081cb;}.cls-35{fill:#0081cb;}.cls-36{fill:#0081cb;}.cls-37{fill:#0081cb;}.cls-38{fill:#0081cb;}.cls-39{fill:#0081cb;}.cls-40{fill:#0081cb;}.cls-41{fill:#0081cb;}.cls-42{fill:#0081cb;}.cls-43{fill:#0081cb;}.cls-44{fill:#0081cb;}.cls-45{fill:#0081cb;}.cls-46{fill:#0081cb;}.cls-47{fill:#0081cb;}.cls-48{fill:#0081cb;}.cls-49{fill:#0081cb;}.cls-50{fill:#0081cb;}.cls-51{fill:#0081cb;}.cls-52{fill:#0081cb;}.cls-53{fill:#0081cb;}.cls-54{fill:#0081cb;}.cls-55{fill:#0081cb;}.cls-56{fill:#0081cb;}.cls-57{fill:#0081cb;}.cls-58{clip-path:url(#clip-path-2);}.cls-59{clip-path:url(#clip-path-3);}.cls-60{clip-path:url(#clip-path-4);}.cls-61{clip-path:url(#clip-path-5);}.cls-62{fill:#0081cb;}.cls-63{fill:#0081cb;}</style><clipPath id="clip-path" transform="translate(0 0)"><rect class="cls-1" x="1.72" y="2" width="10.59" height="0.95"/></clipPath><clipPath id="clip-path-2" transform="translate(0 0)"><rect class="cls-1" x="1.72" y="7.02" width="10.59" height="0.95"/></clipPath><clipPath id="clip-path-3" transform="translate(0 0)"><rect class="cls-1" x="1.72" y="12.04" width="10.59" height="0.95"/></clipPath><clipPath id="clip-path-4" transform="translate(0 0)"><rect class="cls-1" width="2.06" height="14.99"/></clipPath><clipPath id="clip-path-5" transform="translate(0 0)"><rect class="cls-1" x="12" width="2.06" height="14.99"/></clipPath></defs><g id="Layer_2" data-name="Layer 2"><g id="Layer_1-2" data-name="Layer 1"><g class="cls-2"><path class="cls-3" d="M1.72,2V2Z" transform="translate(0 0)"/><rect class="cls-3" x="1.72" y="2" width="0.19" height="0.95"/><rect class="cls-4" x="1.91" y="2" width="0.19" height="0.95"/><rect class="cls-5" x="2.1" y="2" width="0.19" height="0.95"/><rect class="cls-6" x="2.3" y="2" width="0.19" height="0.95"/><rect class="cls-7" x="2.49" y="2" width="0.19" height="0.95"/><rect class="cls-8" x="2.68" y="2" width="0.19" height="0.95"/><rect class="cls-9" x="2.87" y="2" width="0.19" height="0.95"/><rect class="cls-10" x="3.07" y="2" width="0.19" height="0.95"/><rect class="cls-11" x="3.26" y="2" width="0.19" height="0.95"/><rect class="cls-12" x="3.45" y="2" width="0.19" height="0.95"/><rect class="cls-13" x="3.64" y="2" width="0.19" height="0.95"/><rect class="cls-14" x="3.84" y="2" width="0.19" height="0.95"/><rect class="cls-15" x="4.03" y="2" width="0.19" height="0.95"/><rect class="cls-16" x="4.22" y="2" width="0.19" height="0.95"/><rect class="cls-17" x="4.41" y="2" width="0.19" height="0.95"/><rect class="cls-18" x="4.61" y="2" width="0.19" height="0.95"/><rect class="cls-19" x="4.8" y="2" width="0.19" height="0.95"/><rect class="cls-20" x="4.99" y="2" width="0.19" height="0.95"/><rect class="cls-21" x="5.18" y="2" width="0.19" height="0.95"/><rect class="cls-22" x="5.38" y="2" width="0.19" height="0.95"/><rect class="cls-23" x="5.57" y="2" width="0.19" height="0.95"/><rect class="cls-24" x="5.76" y="2" width="0.19" height="0.95"/><rect class="cls-25" x="5.95" y="2" width="0.19" height="0.95"/><rect class="cls-26" x="6.15" y="2" width="0.19" height="0.95"/><rect class="cls-27" x="6.34" y="2" width="0.19" height="0.95"/><rect class="cls-28" x="6.53" y="2" width="0.19" height="0.95"/><rect class="cls-29" x="6.73" y="2" width="0.19" height="0.95"/><rect class="cls-30" x="6.92" y="2" width="0.19" height="0.95"/><rect class="cls-31" x="7.11" y="2" width="0.19" height="0.95"/><rect class="cls-32" x="7.3" y="2" width="0.19" height="0.95"/><rect class="cls-33" x="7.5" y="2" width="0.19" height="0.95"/><rect class="cls-34" x="7.69" y="2" width="0.19" height="0.95"/><rect class="cls-35" x="7.88" y="2" width="0.19" height="0.95"/><rect class="cls-36" x="8.07" y="2" width="0.19" height="0.95"/><rect class="cls-37" x="8.27" y="2" width="0.19" height="0.95"/><rect class="cls-38" x="8.46" y="2" width="0.19" height="0.95"/><rect class="cls-39" x="8.65" y="2" width="0.19" height="0.95"/><rect class="cls-40" x="8.84" y="2" width="0.19" height="0.95"/><rect class="cls-41" x="9.04" y="2" width="0.19" height="0.95"/><rect class="cls-42" x="9.23" y="2" width="0.19" height="0.95"/><rect class="cls-43" x="9.42" y="2" width="0.19" height="0.95"/><rect class="cls-44" x="9.61" y="2" width="0.19" height="0.95"/><rect class="cls-45" x="9.81" y="2" width="0.19" height="0.95"/><rect class="cls-46" x="10" y="2" width="0.19" height="0.95"/><rect class="cls-47" x="10.19" y="2" width="0.19" height="0.95"/><rect class="cls-48" x="10.38" y="2" width="0.19" height="0.95"/><rect class="cls-49" x="10.58" y="2" width="0.19" height="0.95"/><rect class="cls-50" x="10.77" y="2" width="0.19" height="0.95"/><rect class="cls-51" x="10.96" y="2" width="0.19" height="0.95"/><rect class="cls-52" x="11.15" y="2" width="0.19" height="0.95"/><rect class="cls-53" x="11.35" y="2" width="0.19" height="0.95"/><rect class="cls-54" x="11.54" y="2" width="0.19" height="0.95"/><rect class="cls-55" x="11.73" y="2" width="0.19" height="0.95"/><rect class="cls-56" x="11.92" y="2" width="0.19" height="0.95"/><rect class="cls-57" x="12.12" y="2" width="0.19" height="0.95"/><path class="cls-57" d="M12.31,3V3Z" transform="translate(0 0)"/></g><g class="cls-58"><path class="cls-3" d="M1.72,7V7Z" transform="translate(0 0)"/><rect class="cls-3" x="1.72" y="7.02" width="0.19" height="0.95"/><rect class="cls-4" x="1.91" y="7.02" width="0.19" height="0.95"/><rect class="cls-5" x="2.1" y="7.02" width="0.19" height="0.95"/><rect class="cls-6" x="2.3" y="7.02" width="0.19" height="0.95"/><rect class="cls-7" x="2.49" y="7.02" width="0.19" height="0.95"/><rect class="cls-8" x="2.68" y="7.02" width="0.19" height="0.95"/><rect class="cls-9" x="2.87" y="7.02" width="0.19" height="0.95"/><rect class="cls-10" x="3.07" y="7.02" width="0.19" height="0.95"/><rect class="cls-11" x="3.26" y="7.02" width="0.19" height="0.95"/><rect class="cls-12" x="3.45" y="7.02" width="0.19" height="0.95"/><rect class="cls-13" x="3.64" y="7.02" width="0.19" height="0.95"/><rect class="cls-14" x="3.84" y="7.02" width="0.19" height="0.95"/><rect class="cls-15" x="4.03" y="7.02" width="0.19" height="0.95"/><rect class="cls-16" x="4.22" y="7.02" width="0.19" height="0.95"/><rect class="cls-17" x="4.41" y="7.02" width="0.19" height="0.95"/><rect class="cls-18" x="4.61" y="7.02" width="0.19" height="0.95"/><rect class="cls-19" x="4.8" y="7.02" width="0.19" height="0.95"/><rect class="cls-20" x="4.99" y="7.02" width="0.19" height="0.95"/><rect class="cls-21" x="5.18" y="7.02" width="0.19" height="0.95"/><rect class="cls-22" x="5.38" y="7.02" width="0.19" height="0.95"/><rect class="cls-23" x="5.57" y="7.02" width="0.19" height="0.95"/><rect class="cls-24" x="5.76" y="7.02" width="0.19" height="0.95"/><rect class="cls-25" x="5.95" y="7.02" width="0.19" height="0.95"/><rect class="cls-26" x="6.15" y="7.02" width="0.19" height="0.95"/><rect class="cls-27" x="6.34" y="7.02" width="0.19" height="0.95"/><rect class="cls-28" x="6.53" y="7.02" width="0.19" height="0.95"/><rect class="cls-29" x="6.73" y="7.02" width="0.19" height="0.95"/><rect class="cls-30" x="6.92" y="7.02" width="0.19" height="0.95"/><rect class="cls-31" x="7.11" y="7.02" width="0.19" height="0.95"/><rect class="cls-32" x="7.3" y="7.02" width="0.19" height="0.95"/><rect class="cls-33" x="7.5" y="7.02" width="0.19" height="0.95"/><rect class="cls-34" x="7.69" y="7.02" width="0.19" height="0.95"/><rect class="cls-35" x="7.88" y="7.02" width="0.19" height="0.95"/><rect class="cls-36" x="8.07" y="7.02" width="0.19" height="0.95"/><rect class="cls-37" x="8.27" y="7.02" width="0.19" height="0.95"/><rect class="cls-38" x="8.46" y="7.02" width="0.19" height="0.95"/><rect class="cls-39" x="8.65" y="7.02" width="0.19" height="0.95"/><rect class="cls-40" x="8.84" y="7.02" width="0.19" height="0.95"/><rect class="cls-41" x="9.04" y="7.02" width="0.19" height="0.95"/><rect class="cls-42" x="9.23" y="7.02" width="0.19" height="0.95"/><rect class="cls-43" x="9.42" y="7.02" width="0.19" height="0.95"/><rect class="cls-44" x="9.61" y="7.02" width="0.19" height="0.95"/><rect class="cls-45" x="9.81" y="7.02" width="0.19" height="0.95"/><rect class="cls-46" x="10" y="7.02" width="0.19" height="0.95"/><rect class="cls-47" x="10.19" y="7.02" width="0.19" height="0.95"/><rect class="cls-48" x="10.38" y="7.02" width="0.19" height="0.95"/><rect class="cls-49" x="10.58" y="7.02" width="0.19" height="0.95"/><rect class="cls-50" x="10.77" y="7.02" width="0.19" height="0.95"/><rect class="cls-51" x="10.96" y="7.02" width="0.19" height="0.95"/><rect class="cls-52" x="11.15" y="7.02" width="0.19" height="0.95"/><rect class="cls-53" x="11.35" y="7.02" width="0.19" height="0.95"/><rect class="cls-54" x="11.54" y="7.02" width="0.19" height="0.95"/><rect class="cls-55" x="11.73" y="7.02" width="0.19" height="0.95"/><rect class="cls-56" x="11.92" y="7.02" width="0.19" height="0.95"/><rect class="cls-57" x="12.12" y="7.02" width="0.19" height="0.95"/><path class="cls-57" d="M12.31,8V8Z" transform="translate(0 0)"/></g><g class="cls-59"><path class="cls-3" d="M1.72,12v0Z" transform="translate(0 0)"/><rect class="cls-3" x="1.72" y="12.04" width="0.19" height="0.95"/><rect class="cls-4" x="1.91" y="12.04" width="0.19" height="0.95"/><rect class="cls-5" x="2.1" y="12.04" width="0.19" height="0.95"/><rect class="cls-6" x="2.3" y="12.04" width="0.19" height="0.95"/><rect class="cls-7" x="2.49" y="12.04" width="0.19" height="0.95"/><rect class="cls-8" x="2.68" y="12.04" width="0.19" height="0.95"/><rect class="cls-9" x="2.87" y="12.04" width="0.19" height="0.95"/><rect class="cls-10" x="3.07" y="12.04" width="0.19" height="0.95"/><rect class="cls-11" x="3.26" y="12.04" width="0.19" height="0.95"/><rect class="cls-12" x="3.45" y="12.04" width="0.19" height="0.95"/><rect class="cls-13" x="3.64" y="12.04" width="0.19" height="0.95"/><rect class="cls-14" x="3.84" y="12.04" width="0.19" height="0.95"/><rect class="cls-15" x="4.03" y="12.04" width="0.19" height="0.95"/><rect class="cls-16" x="4.22" y="12.04" width="0.19" height="0.95"/><rect class="cls-17" x="4.41" y="12.04" width="0.19" height="0.95"/><rect class="cls-18" x="4.61" y="12.04" width="0.19" height="0.95"/><rect class="cls-19" x="4.8" y="12.04" width="0.19" height="0.95"/><rect class="cls-20" x="4.99" y="12.04" width="0.19" height="0.95"/><rect class="cls-21" x="5.18" y="12.04" width="0.19" height="0.95"/><rect class="cls-22" x="5.38" y="12.04" width="0.19" height="0.95"/><rect class="cls-23" x="5.57" y="12.04" width="0.19" height="0.95"/><rect class="cls-24" x="5.76" y="12.04" width="0.19" height="0.95"/><rect class="cls-25" x="5.95" y="12.04" width="0.19" height="0.95"/><rect class="cls-26" x="6.15" y="12.04" width="0.19" height="0.95"/><rect class="cls-27" x="6.34" y="12.04" width="0.19" height="0.95"/><rect class="cls-28" x="6.53" y="12.04" width="0.19" height="0.95"/><rect class="cls-29" x="6.73" y="12.04" width="0.19" height="0.95"/><rect class="cls-30" x="6.92" y="12.04" width="0.19" height="0.95"/><rect class="cls-31" x="7.11" y="12.04" width="0.19" height="0.95"/><rect class="cls-32" x="7.3" y="12.04" width="0.19" height="0.95"/><rect class="cls-33" x="7.5" y="12.04" width="0.19" height="0.95"/><rect class="cls-34" x="7.69" y="12.04" width="0.19" height="0.95"/><rect class="cls-35" x="7.88" y="12.04" width="0.19" height="0.95"/><rect class="cls-36" x="8.07" y="12.04" width="0.19" height="0.95"/><rect class="cls-37" x="8.27" y="12.04" width="0.19" height="0.95"/><rect class="cls-38" x="8.46" y="12.04" width="0.19" height="0.95"/><rect class="cls-39" x="8.65" y="12.04" width="0.19" height="0.95"/><rect class="cls-40" x="8.84" y="12.04" width="0.19" height="0.95"/><rect class="cls-41" x="9.04" y="12.04" width="0.19" height="0.95"/><rect class="cls-42" x="9.23" y="12.04" width="0.19" height="0.95"/><rect class="cls-43" x="9.42" y="12.04" width="0.19" height="0.95"/><rect class="cls-44" x="9.61" y="12.04" width="0.19" height="0.95"/><rect class="cls-45" x="9.81" y="12.04" width="0.19" height="0.95"/><rect class="cls-46" x="10" y="12.04" width="0.19" height="0.95"/><rect class="cls-47" x="10.19" y="12.04" width="0.19" height="0.95"/><rect class="cls-48" x="10.38" y="12.04" width="0.19" height="0.95"/><rect class="cls-49" x="10.58" y="12.04" width="0.19" height="0.95"/><rect class="cls-50" x="10.77" y="12.04" width="0.19" height="0.95"/><rect class="cls-51" x="10.96" y="12.04" width="0.19" height="0.95"/><rect class="cls-52" x="11.15" y="12.04" width="0.19" height="0.95"/><rect class="cls-53" x="11.35" y="12.04" width="0.19" height="0.95"/><rect class="cls-54" x="11.54" y="12.04" width="0.19" height="0.95"/><rect class="cls-55" x="11.73" y="12.04" width="0.19" height="0.95"/><rect class="cls-56" x="11.92" y="12.04" width="0.19" height="0.95"/><rect class="cls-57" x="12.12" y="12.04" width="0.19" height="0.95"/><path class="cls-57" d="M12.31,13v0Z" transform="translate(0 0)"/></g><g class="cls-60"><polygon class="cls-3" points="2.06 7.51 0 7.49 0 0 2.06 0 2.06 7.51"/><polygon class="cls-3" points="2.06 7.54 0 7.53 0 7.49 2.06 7.51 2.06 7.54"/><polygon class="cls-4" points="2.06 7.58 0 7.57 0 7.53 2.06 7.54 2.06 7.58"/><polygon class="cls-5" points="2.06 7.62 0 7.61 0 7.57 2.06 7.58 2.06 7.62"/><polygon class="cls-6" points="2.06 7.66 0 7.64 0 7.61 2.06 7.62 2.06 7.66"/><polygon class="cls-7" points="2.06 7.69 0 7.68 0 7.64 2.06 7.66 2.06 7.69"/><polygon class="cls-8" points="2.06 7.73 0 7.72 0 7.68 2.06 7.69 2.06 7.73"/><polygon class="cls-9" points="2.06 7.77 0 7.76 0 7.72 2.06 7.73 2.06 7.77"/><polygon class="cls-10" points="2.06 7.8 0 7.79 0 7.76 2.06 7.77 2.06 7.8"/><polygon class="cls-11" points="2.06 7.84 0 7.83 0 7.79 2.06 7.8 2.06 7.84"/><polygon class="cls-12" points="2.06 7.88 0 7.87 0 7.83 2.06 7.84 2.06 7.88"/><polygon class="cls-13" points="2.06 7.92 0 7.91 0 7.87 2.06 7.88 2.06 7.92"/><polygon class="cls-14" points="2.06 7.96 0 7.94 0 7.91 2.06 7.92 2.06 7.96"/><polygon class="cls-15" points="2.06 7.99 0 7.98 0 7.94 2.06 7.96 2.06 7.99"/><polygon class="cls-16" points="2.06 8.03 0 8.02 0 7.98 2.06 7.99 2.06 8.03"/><polygon class="cls-17" points="2.06 8.07 0 8.05 0 8.02 2.06 8.03 2.06 8.07"/><polygon class="cls-18" points="2.06 8.1 0 8.09 0 8.05 2.06 8.07 2.06 8.1"/><polygon class="cls-19" points="2.06 8.14 0 8.13 0 8.09 2.06 8.1 2.06 8.14"/><polygon class="cls-20" points="2.06 8.18 0 8.17 0 8.13 2.06 8.14 2.06 8.18"/><polygon class="cls-21" points="2.06 8.22 0 8.21 0 8.17 2.06 8.18 2.06 8.22"/><polygon class="cls-22" points="2.06 8.25 0 8.24 0 8.21 2.06 8.22 2.06 8.25"/><polygon class="cls-23" points="2.06 8.29 0 8.28 0 8.24 2.06 8.25 2.06 8.29"/><polygon class="cls-24" points="2.06 8.33 0 8.32 0 8.28 2.06 8.29 2.06 8.33"/><polygon class="cls-25" points="2.06 8.37 0 8.36 0 8.32 2.06 8.33 2.06 8.37"/><polygon class="cls-26" points="2.06 8.4 0 8.39 0 8.36 2.06 8.37 2.06 8.4"/><polygon class="cls-27" points="2.06 8.44 0 8.43 0 8.39 2.06 8.4 2.06 8.44"/><polygon class="cls-28" points="2.06 8.48 0 8.47 0 8.43 2.06 8.44 2.06 8.48"/><polygon class="cls-29" points="2.06 8.52 0 8.5 0 8.47 2.06 8.48 2.06 8.52"/><polygon class="cls-30" points="2.06 8.55 0 8.54 0 8.5 2.06 8.52 2.06 8.55"/><polygon class="cls-31" points="2.06 8.59 0 8.58 0 8.54 2.06 8.55 2.06 8.59"/><polygon class="cls-32" points="2.06 8.63 0 8.62 0 8.58 2.06 8.59 2.06 8.63"/><polygon class="cls-33" points="2.06 8.67 0 8.65 0 8.62 2.06 8.63 2.06 8.67"/><polygon class="cls-34" points="2.06 8.7 0 8.69 0 8.65 2.06 8.67 2.06 8.7"/><polygon class="cls-35" points="2.06 8.74 0 8.73 0 8.69 2.06 8.7 2.06 8.74"/><polygon class="cls-36" points="2.06 8.78 0 8.77 0 8.73 2.06 8.74 2.06 8.78"/><polygon class="cls-37" points="2.06 8.81 0 8.8 0 8.77 2.06 8.78 2.06 8.81"/><polygon class="cls-38" points="2.06 8.85 0 8.84 0 8.8 2.06 8.81 2.06 8.85"/><polygon class="cls-39" points="2.06 8.89 0 8.88 0 8.84 2.06 8.85 2.06 8.89"/><polygon class="cls-40" points="2.06 8.93 0 8.92 0 8.88 2.06 8.89 2.06 8.93"/><polygon class="cls-41" points="2.06 8.96 0 8.95 0 8.92 2.06 8.93 2.06 8.96"/><polygon class="cls-42" points="2.06 9 0 8.99 0 8.95 2.06 8.96 2.06 9"/><polygon class="cls-43" points="2.06 9.04 0 9.03 0 8.99 2.06 9 2.06 9.04"/><polygon class="cls-44" points="2.06 9.08 0 9.06 0 9.03 2.06 9.04 2.06 9.08"/><polygon class="cls-45" points="2.06 9.11 0 9.1 0 9.06 2.06 9.08 2.06 9.11"/><polygon class="cls-46" points="2.06 9.15 0 9.14 0 9.1 2.06 9.11 2.06 9.15"/><polygon class="cls-47" points="2.06 9.19 0 9.18 0 9.14 2.06 9.15 2.06 9.19"/><polygon class="cls-48" points="2.06 9.23 0 9.21 0 9.18 2.06 9.19 2.06 9.23"/><polygon class="cls-49" points="2.06 9.26 0 9.25 0 9.21 2.06 9.23 2.06 9.26"/><polygon class="cls-50" points="2.06 9.3 0 9.29 0 9.25 2.06 9.26 2.06 9.3"/><polygon class="cls-51" points="2.06 9.34 0 9.33 0 9.29 2.06 9.3 2.06 9.34"/><polygon class="cls-52" points="2.06 9.38 0 9.37 0 9.33 2.06 9.34 2.06 9.38"/><polygon class="cls-53" points="2.06 9.41 0 9.4 0 9.37 2.06 9.38 2.06 9.41"/><polygon class="cls-54" points="2.06 9.45 0 9.44 0 9.4 2.06 9.41 2.06 9.45"/><polygon class="cls-55" points="2.06 9.49 0 9.48 0 9.44 2.06 9.45 2.06 9.49"/><polygon class="cls-56" points="2.06 9.53 0 9.51 0 9.48 2.06 9.49 2.06 9.53"/><polygon class="cls-57" points="2.06 9.56 0 9.55 0 9.51 2.06 9.53 2.06 9.56"/><polygon class="cls-57" points="0 9.55 2.06 9.56 2.06 14.99 0 14.99 0 9.55"/></g><g class="cls-61"><polygon class="cls-3" points="14.06 7.51 12 7.49 12 0 14.06 0 14.06 7.51"/><polygon class="cls-3" points="14.06 7.54 12 7.53 12 7.49 14.06 7.51 14.06 7.54"/><polygon class="cls-4" points="14.06 7.58 12 7.57 12 7.53 14.06 7.54 14.06 7.58"/><polygon class="cls-5" points="14.06 7.62 12 7.61 12 7.57 14.06 7.58 14.06 7.62"/><polygon class="cls-6" points="14.06 7.66 12 7.64 12 7.61 14.06 7.62 14.06 7.66"/><polygon class="cls-7" points="14.06 7.69 12 7.68 12 7.64 14.06 7.66 14.06 7.69"/><polygon class="cls-8" points="14.06 7.73 12 7.72 12 7.68 14.06 7.69 14.06 7.73"/><polygon class="cls-9" points="14.06 7.77 12 7.76 12 7.72 14.06 7.73 14.06 7.77"/><polygon class="cls-10" points="14.06 7.8 12 7.79 12 7.76 14.06 7.77 14.06 7.8"/><polygon class="cls-11" points="14.06 7.84 12 7.83 12 7.79 14.06 7.8 14.06 7.84"/><polygon class="cls-12" points="14.06 7.88 12 7.87 12 7.83 14.06 7.84 14.06 7.88"/><polygon class="cls-13" points="14.06 7.92 12 7.91 12 7.87 14.06 7.88 14.06 7.92"/><polygon class="cls-14" points="14.06 7.96 12 7.94 12 7.91 14.06 7.92 14.06 7.96"/><polygon class="cls-15" points="14.06 7.99 12 7.98 12 7.94 14.06 7.96 14.06 7.99"/><polygon class="cls-16" points="14.06 8.03 12 8.02 12 7.98 14.06 7.99 14.06 8.03"/><polygon class="cls-17" points="14.06 8.07 12 8.05 12 8.02 14.06 8.03 14.06 8.07"/><polygon class="cls-18" points="14.06 8.1 12 8.09 12 8.05 14.06 8.07 14.06 8.1"/><polygon class="cls-19" points="14.06 8.14 12 8.13 12 8.09 14.06 8.1 14.06 8.14"/><polygon class="cls-20" points="14.06 8.18 12 8.17 12 8.13 14.06 8.14 14.06 8.18"/><polygon class="cls-21" points="14.06 8.22 12 8.21 12 8.17 14.06 8.18 14.06 8.22"/><polygon class="cls-22" points="14.06 8.25 12 8.24 12 8.21 14.06 8.22 14.06 8.25"/><polygon class="cls-23" points="14.06 8.29 12 8.28 12 8.24 14.06 8.25 14.06 8.29"/><polygon class="cls-24" points="14.06 8.33 12 8.32 12 8.28 14.06 8.29 14.06 8.33"/><polygon class="cls-25" points="14.06 8.37 12 8.36 12 8.32 14.06 8.33 14.06 8.37"/><polygon class="cls-26" points="14.06 8.4 12 8.39 12 8.36 14.06 8.37 14.06 8.4"/><polygon class="cls-27" points="14.06 8.44 12 8.43 12 8.39 14.06 8.4 14.06 8.44"/><polygon class="cls-28" points="14.06 8.48 12 8.47 12 8.43 14.06 8.44 14.06 8.48"/><polygon class="cls-29" points="14.06 8.52 12 8.5 12 8.47 14.06 8.48 14.06 8.52"/><polygon class="cls-30" points="14.06 8.55 12 8.54 12 8.5 14.06 8.52 14.06 8.55"/><polygon class="cls-31" points="14.06 8.59 12 8.58 12 8.54 14.06 8.55 14.06 8.59"/><polygon class="cls-32" points="14.06 8.63 12 8.62 12 8.58 14.06 8.59 14.06 8.63"/><polygon class="cls-33" points="14.06 8.67 12 8.65 12 8.62 14.06 8.63 14.06 8.67"/><polygon class="cls-34" points="14.06 8.7 12 8.69 12 8.65 14.06 8.67 14.06 8.7"/><polygon class="cls-35" points="14.06 8.74 12 8.73 12 8.69 14.06 8.7 14.06 8.74"/><polygon class="cls-36" points="14.06 8.78 12 8.77 12 8.73 14.06 8.74 14.06 8.78"/><polygon class="cls-37" points="14.06 8.81 12 8.8 12 8.77 14.06 8.78 14.06 8.81"/><polygon class="cls-38" points="14.06 8.85 12 8.84 12 8.8 14.06 8.81 14.06 8.85"/><polygon class="cls-39" points="14.06 8.89 12 8.88 12 8.84 14.06 8.85 14.06 8.89"/><polygon class="cls-40" points="14.06 8.93 12 8.92 12 8.88 14.06 8.89 14.06 8.93"/><polygon class="cls-41" points="14.06 8.96 12 8.95 12 8.92 14.06 8.93 14.06 8.96"/><polygon class="cls-42" points="14.06 9 12 8.99 12 8.95 14.06 8.96 14.06 9"/><polygon class="cls-43" points="14.06 9.04 12 9.03 12 8.99 14.06 9 14.06 9.04"/><polygon class="cls-44" points="14.06 9.08 12 9.06 12 9.03 14.06 9.04 14.06 9.08"/><polygon class="cls-45" points="14.06 9.11 12 9.1 12 9.06 14.06 9.08 14.06 9.11"/><polygon class="cls-46" points="14.06 9.15 12 9.14 12 9.1 14.06 9.11 14.06 9.15"/><polygon class="cls-47" points="14.06 9.19 12 9.18 12 9.14 14.06 9.15 14.06 9.19"/><polygon class="cls-48" points="14.06 9.23 12 9.21 12 9.18 14.06 9.19 14.06 9.23"/><polygon class="cls-49" points="14.06 9.26 12 9.25 12 9.21 14.06 9.23 14.06 9.26"/><polygon class="cls-50" points="14.06 9.3 12 9.29 12 9.25 14.06 9.26 14.06 9.3"/><polygon class="cls-51" points="14.06 9.34 12 9.33 12 9.29 14.06 9.3 14.06 9.34"/><polygon class="cls-52" points="14.06 9.38 12 9.37 12 9.33 14.06 9.34 14.06 9.38"/><polygon class="cls-53" points="14.06 9.41 12 9.4 12 9.37 14.06 9.38 14.06 9.41"/><polygon class="cls-54" points="14.06 9.45 12 9.44 12 9.4 14.06 9.41 14.06 9.45"/><polygon class="cls-55" points="14.06 9.49 12 9.48 12 9.44 14.06 9.45 14.06 9.49"/><polygon class="cls-56" points="14.06 9.53 12 9.51 12 9.48 14.06 9.49 14.06 9.53"/><polygon class="cls-57" points="14.06 9.56 12 9.55 12 9.51 14.06 9.53 14.06 9.56"/><polygon class="cls-57" points="12 9.55 14.06 9.56 14.06 14.99 12 14.99 12 9.55"/></g><rect class="cls-62" x="3.98" y="0.96" width="3.01" height="3.01"/><rect class="cls-63" x="3.99" y="1.97" width="2.98" height="0.99"/><rect class="cls-63" x="4.99" y="0.98" width="0.99" height="2.98"/><rect class="cls-62" x="8.99" y="0.96" width="3.01" height="3.01"/><rect class="cls-63" x="9" y="1.97" width="2.98" height="0.99"/><rect class="cls-63" x="10" y="0.98" width="0.99" height="2.98"/><rect class="cls-62" x="8.99" y="5.99" width="3.01" height="3.01"/><rect class="cls-63" x="9" y="6.99" width="2.98" height="0.99"/><rect class="cls-63" x="10" y="6" width="0.99" height="2.98"/><rect class="cls-62" x="2.06" y="5.99" width="3.01" height="3.01"/><rect class="cls-63" x="2.07" y="6.99" width="2.98" height="0.99"/><rect class="cls-63" x="3.07" y="6" width="0.99" height="2.98"/><rect class="cls-62" x="3.98" y="11.01" width="3.01" height="3.01"/><rect class="cls-63" x="3.99" y="12.02" width="2.98" height="0.99"/><rect class="cls-63" x="4.99" y="11.03" width="0.99" height="2.98"/><rect class="cls-62" x="7.99" y="11.01" width="3.01" height="3.01"/><rect class="cls-63" x="8.01" y="12.02" width="2.98" height="0.99"/><rect class="cls-63" x="9" y="11.03" width="0.99" height="2.98"/></g></g></svg>