<svg xmlns="http://www.w3.org/2000/svg" xmlns:xlink="http://www.w3.org/1999/xlink" viewBox="0 0 15.79 9.51">
<defs><style>.cls-1{fill:none;}.cls-2{fill:#0081cb;}.cls-3{clip-path:url(#clip-path);}.cls-4{fill:#FFFFFF;}
.cls-5{fill:#FFFFFF;}.cls-6{fill:#FFFFFF;}.cls-7{fill:#FFFFFF;}.cls-8{fill:#FFFFFF;}.cls-9{fill:#FFFFFF;}
.cls-10{fill:#FFFFFF;}.cls-11{fill:#FFFFFF;}.cls-12{fill:#FFFFFF;}.cls-13{fill:#FFFFFF;}.cls-14{fill:#FFFFFF;}
.cls-15{fill:#FFFFFF;}.cls-16{fill:#FFFFFF;}.cls-17{fill:#FFFFFF;}.cls-18{fill:#FFFFFF;}.cls-19{fill:#FFFFFF;}
.cls-20{fill:#FFFFFF;}.cls-21{fill:#FFFFFF;}.cls-22{fill:#FFFFFF;}.cls-23{fill:#FFFFFF;}.cls-24{fill:#FFFFFF;}
.cls-25{fill:#FFFFFF;}.cls-26{fill:#FFFFFF;}.cls-27{fill:#FFFFFF;}.cls-28{fill:#FFFFFF;}.cls-29{fill:#FFFFFF;}
.cls-30{fill:#FFFFFF;}.cls-31{fill:#FFFFFF;}.cls-32{fill:#FFFFFF;}.cls-33{fill:#FFFFFF;}.cls-34{fill:#FFFFFF;}
.cls-35{fill:#FFFFFF;}.cls-36{fill:#FFFFFF;}.cls-37{fill:#FFFFFF;}.cls-38{fill:#FFFFFF;}.cls-39{fill:#FFFFFF;}
.cls-40{fill:#FFFFFF;}.cls-41{fill:#FFFFFF;}.cls-42{fill:#FFFFFF;}.cls-43{fill:#FFFFFF;}.cls-44{fill:#FFFFFF;}
.cls-45{fill:#FFFFFF;}.cls-46{fill:#FFFFFF;}.cls-47{fill:#FFFFFF;}.cls-48{fill:#FFFFFF;}.cls-49{fill:#FFFFFF;}
.cls-50{fill:#FFFFFF;}.cls-51{fill:#FFFFFF;}.cls-52{fill:#FFFFFF;}.cls-53{fill:#FFFFFF;}.cls-54{fill:#FFFFFF;}
.cls-55{fill:#FFFFFF;}.cls-56{fill:#FFFFFF;}.cls-57{fill:#FFFFFF;}.cls-58{fill:#FFFFFF;}.cls-59{fill:#FFFFFF;}
.cls-60{fill:#FFFFFF;}.cls-61{fill:#FFFFFF;}.cls-62{fill:#FFFFFF;}.cls-63{fill:#FFFFFF;}.cls-64{fill:#FFFFFF;}
.cls-65{fill:#FFFFFF;}.cls-66{fill:#FFFFFF;}.cls-67{fill:#FFFFFF;}.cls-68{fill:#FFFFFF;}.cls-69{fill:#FFFFFF;}
.cls-70{fill:#FFFFFF;}.cls-71{fill:#FFFFFF;}.cls-72{fill:#FFFFFF;}.cls-73{fill:#FFFFFF;}.cls-74{fill:#FFFFFF;}
.cls-75{fill:#FFFFFF;}.cls-76{fill:#FFFFFF;}.cls-77{fill:#FFFFFF;}.cls-78{fill:#FFFFFF;}.cls-79{fill:#FFFFFF;}
.cls-80{fill:#FFFFFF;}.cls-81{fill:#0081cb;}.cls-82{fill:#FFFFFF;}.cls-83{fill:#0081cb;}
</style><clipPath id="clip-path"><rect class="cls-1" x="0.5" y="0.5" width="4.33" height="4.33"/></clipPath></defs>
<g id="Layer_2" data-name="Layer 2"><g id="Layer_1-2" data-name="Layer 1"><polygon class="cls-2" 
points="9.14 7.12 6.27 7.12 6.27 3.16 4.83 3.16 4.83 2.16 7.27 2.16 7.27 6.12 9.14 6.12 9.14 7.12"/>
<polygon class="cls-2" points="8.27 3.92 8.27 9.32 10.82 6.76 8.27 3.92"/><g class="cls-3">
<path class="cls-4" d="M.5.5v0Z"/><rect class="cls-4" x="0.5" y="0.5" width="0.03" height="4.33"/>
<rect class="cls-5" x="0.53" y="0.5" width="0.03" height="4.33"/><rect class="cls-6" x="0.56" y="0.5" 
width="0.03" height="4.33"/><rect class="cls-7" x="0.59" y="0.5" width="0.03" height="4.33"/>
<rect class="cls-8" x="0.63" y="0.5" width="0.03" height="4.33"/><rect class="cls-9" x="0.66" y="0.5" 
width="0.03" height="4.33"/><rect class="cls-10" x="0.69" y="0.5" width="0.03" height="4.33"/>
<rect class="cls-11" x="0.72" y="0.5" width="0.03" height="4.33"/><rect class="cls-12" x="0.75" y="0.5"
 width="0.03" height="4.33"/><rect class="cls-13" x="0.78" y="0.5" width="0.03" height="4.33"/>
 <rect class="cls-14" x="0.81" y="0.5" width="0.03" height="4.33"/><rect class="cls-15" x="0.85" y="0.5"
  width="0.03" height="4.33"/><rect class="cls-16" x="0.88" y="0.5" width="0.03" height="4.33"/>
  <rect class="cls-17" x="0.91" y="0.5" width="0.03" height="4.33"/><rect class="cls-18" x="0.94" y="0.5" 
  width="0.03" height="4.33"/><rect class="cls-19" x="0.97" y="0.5" width="0.03" height="4.33"/>
  <rect class="cls-20" x="1" y="0.5" width="0.03" height="4.33"/><rect class="cls-21" x="1.03" y="0.5" 
  width="0.03" height="4.33"/><rect class="cls-22" x="1.07" y="0.5" width="0.03" height="4.33"/>
  <rect class="cls-23" x="1.1" y="0.5" width="0.03" height="4.33"/><rect class="cls-24" x="1.13" y="0.5"
   width="0.03" height="4.33"/><rect class="cls-25" x="1.16" y="0.5" width="0.03" height="4.33"/>
   <rect class="cls-26" x="1.19" y="0.5" width="0.03" height="4.33"/><rect class="cls-27" x="1.22" y="0.5" 
   width="0.03" height="4.33"/><rect class="cls-28" x="1.25" y="0.5" width="0.03" height="4.33"/>
   <rect class="cls-29" x="1.29" y="0.5" width="0.03" height="4.33"/><rect class="cls-30" x="1.32" y="0.5"
    width="0.03" height="4.33"/><rect class="cls-31" x="1.35" y="0.5" width="0.03" height="4.33"/>
    <rect class="cls-32" x="1.38" y="0.5" width="0.03" height="4.33"/><rect class="cls-33" x="1.41" y="0.5" width="0.03" height="4.33"/><rect class="cls-34" x="1.44" y="0.5" width="0.03" height="4.33"/><rect class="cls-35" x="1.47" y="0.5" width="0.03" height="4.33"/><rect class="cls-36" x="1.51" y="0.5" width="0.03" height="4.33"/><rect class="cls-37" x="1.54" y="0.5" width="0.03" height="4.33"/><rect class="cls-38" x="1.57" y="0.5" width="0.03" height="4.33"/><rect class="cls-39" x="1.6" y="0.5" width="0.03" height="4.33"/><rect class="cls-40" x="1.63" y="0.5" width="0.03" height="4.33"/><rect class="cls-41" x="1.66" y="0.5" width="0.03" height="4.33"/><rect class="cls-42" x="1.69" y="0.5" width="0.03" height="4.33"/><rect class="cls-43" x="1.73" y="0.5" width="0.03" height="4.33"/><rect class="cls-44" x="1.76" y="0.5" width="0.03" height="4.33"/><rect class="cls-45" x="1.79" y="0.5" width="0.03" height="4.33"/><rect class="cls-46" x="1.82" y="0.5" width="0.03" height="4.33"/><rect class="cls-47" x="1.85" y="0.5" width="0.03" height="4.33"/><rect class="cls-48" x="1.88" y="0.5" width="0.03" height="4.33"/><rect class="cls-49" x="1.91" y="0.5" width="0.03" height="4.33"/><rect class="cls-50" x="1.95" y="0.5" width="0.03" height="4.33"/><rect class="cls-51" x="1.98" y="0.5" width="0.03" height="4.33"/><rect class="cls-52" x="2.01" y="0.5" width="0.03" height="4.33"/><rect class="cls-53" x="2.04" y="0.5" width="0.03" height="4.33"/><rect class="cls-54" x="2.07" y="0.5" width="0.03" height="4.33"/><rect class="cls-55" x="2.1" y="0.5" width="0.03" height="4.33"/><rect class="cls-56" x="2.13" y="0.5" width="0.03" height="4.33"/><rect class="cls-57" x="2.17" y="0.5" width="0.03" height="4.33"/><rect class="cls-58" x="2.2" y="0.5" width="0.03" height="4.33"/><rect class="cls-59" x="2.23" y="0.5" width="0.03" height="4.33"/><rect class="cls-60" x="2.26" y="0.5" width="0.03" height="4.33"/><rect class="cls-61" x="2.29" y="0.5" width="0.03" height="4.33"/><rect class="cls-62" x="2.32" y="0.5" width="0.03" height="4.33"/><rect class="cls-63" x="2.35" y="0.5" width="0.03" height="4.33"/><rect class="cls-64" x="2.39" y="0.5" width="0.03" height="4.33"/><rect class="cls-65" x="2.42" y="0.5" width="0.03" height="4.33"/><rect class="cls-66" x="2.45" y="0.5" width="0.03" height="4.33"/><rect class="cls-67" x="2.48" y="0.5" width="0.03" height="4.33"/><rect class="cls-68" x="2.51" y="0.5" width="0.03" height="4.33"/><rect class="cls-69" x="2.54" y="0.5" width="0.03" height="4.33"/><rect class="cls-70" x="2.57" y="0.5" width="0.03" height="4.33"/><rect class="cls-71" x="2.61" y="0.5" width="0.03" height="4.33"/><rect class="cls-72" x="2.64" y="0.5" width="0.03" height="4.33"/><rect class="cls-73" x="2.67" y="0.5" width="0.03" height="4.33"/><rect class="cls-74" x="2.7" y="0.5" width="0.03" height="4.33"/><rect class="cls-75" x="2.73" y="0.5" width="0.03" height="4.33"/><rect class="cls-76" x="2.76" y="0.5" width="0.03" height="4.33"/><rect class="cls-77" x="2.79" y="0.5" width="0.03" height="4.33"/><rect class="cls-78" x="2.83" y="0.5" width="0.03" height="4.33"/><rect class="cls-79" x="2.86" y="0.5" width="0.03" height="4.33"/><rect class="cls-80" x="2.89" y="0.5" width="0.03" height="4.33"/><rect class="cls-80" x="2.92" y="0.5" width="1.91" height="4.33"/><path class="cls-80" d="M4.83,4.83v0Z"/></g><path class="cls-81" d="M5.33,5.33H0V0H5.33ZM1,4.33H4.33V1H1Z"/><circle class="cls-82" cx="12.9" cy="6.62" r="2.39"/><path class="cls-83" d="M12.9,9.51a2.89,2.89,0,1,1,2.89-2.89A2.9,2.9,0,0,1,12.9,9.51Zm0-4.78a1.89,1.89,0,1,0,1.89,1.89A1.89,1.89,0,0,0,12.9,4.73Z"/></g></g></svg>